<mxfile host="app.diagrams.net" modified="2024-05-20T19:43:54.824Z" agent="Mozilla/5.0 (Windows NT 10.0; Win64; x64) AppleWebKit/537.36 (KHTML, like Gecko) Chrome/122.0.0.0 YaBrowser/24.4.0.0 Safari/537.36" etag="pqChBqbA-mWHY6LNgZaY" version="24.4.4" type="github">
  <diagram id="C5RBs43oDa-KdzZeNtuy" name="Page-1">
    <mxGraphModel dx="746" dy="465" grid="1" gridSize="10" guides="1" tooltips="1" connect="1" arrows="1" fold="1" page="1" pageScale="1" pageWidth="827" pageHeight="1169" math="0" shadow="0">
      <root>
        <mxCell id="WIyWlLk6GJQsqaUBKTNV-0" />
        <mxCell id="WIyWlLk6GJQsqaUBKTNV-1" parent="WIyWlLk6GJQsqaUBKTNV-0" />
        <mxCell id="z-kclkcZKXiEOrLD0j76-0" value="&lt;font style=&quot;font-size: 16px;&quot;&gt;Начало&lt;/font&gt;" style="ellipse;whiteSpace=wrap;html=1;" vertex="1" parent="WIyWlLk6GJQsqaUBKTNV-1">
          <mxGeometry x="354" y="80" width="120" height="80" as="geometry" />
        </mxCell>
        <mxCell id="z-kclkcZKXiEOrLD0j76-1" value="" style="endArrow=classic;html=1;rounded=0;exitX=0.5;exitY=1;exitDx=0;exitDy=0;" edge="1" parent="WIyWlLk6GJQsqaUBKTNV-1" source="z-kclkcZKXiEOrLD0j76-0">
          <mxGeometry width="50" height="50" relative="1" as="geometry">
            <mxPoint x="360" y="270" as="sourcePoint" />
            <mxPoint x="414" y="220" as="targetPoint" />
          </mxGeometry>
        </mxCell>
        <mxCell id="z-kclkcZKXiEOrLD0j76-2" value="Создать класс пользователя с 3 свойствами Login, Name и IsPremium(bool)" style="rounded=0;whiteSpace=wrap;html=1;" vertex="1" parent="WIyWlLk6GJQsqaUBKTNV-1">
          <mxGeometry x="340" y="220" width="160" height="60" as="geometry" />
        </mxCell>
        <mxCell id="z-kclkcZKXiEOrLD0j76-4" value="" style="endArrow=classic;html=1;rounded=0;exitX=0.45;exitY=1.056;exitDx=0;exitDy=0;exitPerimeter=0;" edge="1" parent="WIyWlLk6GJQsqaUBKTNV-1" source="z-kclkcZKXiEOrLD0j76-2">
          <mxGeometry width="50" height="50" relative="1" as="geometry">
            <mxPoint x="389" y="340" as="sourcePoint" />
            <mxPoint x="412" y="320" as="targetPoint" />
          </mxGeometry>
        </mxCell>
        <mxCell id="z-kclkcZKXiEOrLD0j76-5" value="Создать&amp;nbsp;&lt;div&gt;список&lt;/div&gt;&lt;div&gt;пользователей List&amp;lt;User&amp;gt; users&lt;/div&gt;" style="rounded=0;whiteSpace=wrap;html=1;" vertex="1" parent="WIyWlLk6GJQsqaUBKTNV-1">
          <mxGeometry x="340" y="320" width="160" height="60" as="geometry" />
        </mxCell>
        <mxCell id="z-kclkcZKXiEOrLD0j76-6" value="" style="endArrow=classic;html=1;rounded=0;exitX=0.438;exitY=1;exitDx=0;exitDy=0;exitPerimeter=0;" edge="1" parent="WIyWlLk6GJQsqaUBKTNV-1" source="z-kclkcZKXiEOrLD0j76-5">
          <mxGeometry width="50" height="50" relative="1" as="geometry">
            <mxPoint x="389" y="430" as="sourcePoint" />
            <mxPoint x="410" y="420" as="targetPoint" />
          </mxGeometry>
        </mxCell>
        <mxCell id="z-kclkcZKXiEOrLD0j76-7" value="users.IsPremium" style="rhombus;whiteSpace=wrap;html=1;" vertex="1" parent="WIyWlLk6GJQsqaUBKTNV-1">
          <mxGeometry x="354" y="520" width="120" height="90" as="geometry" />
        </mxCell>
        <mxCell id="z-kclkcZKXiEOrLD0j76-9" value="void Greetings(List&amp;lt;User&amp;gt; users)" style="rounded=0;whiteSpace=wrap;html=1;" vertex="1" parent="WIyWlLk6GJQsqaUBKTNV-1">
          <mxGeometry x="340" y="420" width="160" height="60" as="geometry" />
        </mxCell>
        <mxCell id="z-kclkcZKXiEOrLD0j76-10" value="" style="endArrow=classic;html=1;rounded=0;exitX=0.454;exitY=1.033;exitDx=0;exitDy=0;exitPerimeter=0;entryX=0.5;entryY=0;entryDx=0;entryDy=0;" edge="1" parent="WIyWlLk6GJQsqaUBKTNV-1" source="z-kclkcZKXiEOrLD0j76-9" target="z-kclkcZKXiEOrLD0j76-7">
          <mxGeometry width="50" height="50" relative="1" as="geometry">
            <mxPoint x="400" y="520" as="sourcePoint" />
            <mxPoint x="450" y="470" as="targetPoint" />
          </mxGeometry>
        </mxCell>
        <mxCell id="z-kclkcZKXiEOrLD0j76-11" value="Hello,&lt;div&gt;&amp;nbsp;user.Name!&lt;/div&gt;" style="shape=parallelogram;perimeter=parallelogramPerimeter;whiteSpace=wrap;html=1;fixedSize=1;" vertex="1" parent="WIyWlLk6GJQsqaUBKTNV-1">
          <mxGeometry x="180" y="620" width="120" height="60" as="geometry" />
        </mxCell>
        <mxCell id="z-kclkcZKXiEOrLD0j76-12" value="Hello, user.Name!&lt;br&gt;ShowAds();" style="shape=parallelogram;perimeter=parallelogramPerimeter;whiteSpace=wrap;html=1;fixedSize=1;" vertex="1" parent="WIyWlLk6GJQsqaUBKTNV-1">
          <mxGeometry x="520" y="620" width="130" height="60" as="geometry" />
        </mxCell>
        <mxCell id="z-kclkcZKXiEOrLD0j76-17" value="" style="endArrow=none;html=1;rounded=0;" edge="1" parent="WIyWlLk6GJQsqaUBKTNV-1">
          <mxGeometry width="50" height="50" relative="1" as="geometry">
            <mxPoint x="240" y="565" as="sourcePoint" />
            <mxPoint x="350" y="564.5" as="targetPoint" />
          </mxGeometry>
        </mxCell>
        <mxCell id="z-kclkcZKXiEOrLD0j76-18" value="" style="endArrow=classic;html=1;rounded=0;entryX=0.5;entryY=0;entryDx=0;entryDy=0;" edge="1" parent="WIyWlLk6GJQsqaUBKTNV-1" target="z-kclkcZKXiEOrLD0j76-11">
          <mxGeometry width="50" height="50" relative="1" as="geometry">
            <mxPoint x="240" y="560" as="sourcePoint" />
            <mxPoint x="290" y="510" as="targetPoint" />
          </mxGeometry>
        </mxCell>
        <mxCell id="z-kclkcZKXiEOrLD0j76-19" value="" style="endArrow=none;html=1;rounded=0;exitX=1;exitY=0.5;exitDx=0;exitDy=0;" edge="1" parent="WIyWlLk6GJQsqaUBKTNV-1" source="z-kclkcZKXiEOrLD0j76-7">
          <mxGeometry width="50" height="50" relative="1" as="geometry">
            <mxPoint x="480" y="560" as="sourcePoint" />
            <mxPoint x="600" y="565" as="targetPoint" />
          </mxGeometry>
        </mxCell>
        <mxCell id="z-kclkcZKXiEOrLD0j76-20" value="" style="endArrow=classic;html=1;rounded=0;entryX=0.615;entryY=-0.078;entryDx=0;entryDy=0;entryPerimeter=0;" edge="1" parent="WIyWlLk6GJQsqaUBKTNV-1" target="z-kclkcZKXiEOrLD0j76-12">
          <mxGeometry width="50" height="50" relative="1" as="geometry">
            <mxPoint x="600" y="560" as="sourcePoint" />
            <mxPoint x="600" y="610" as="targetPoint" />
          </mxGeometry>
        </mxCell>
        <mxCell id="z-kclkcZKXiEOrLD0j76-21" value="" style="strokeWidth=2;html=1;shape=mxgraph.flowchart.annotation_1;align=left;pointerEvents=1;direction=north;" vertex="1" parent="WIyWlLk6GJQsqaUBKTNV-1">
          <mxGeometry x="240" y="680" width="360" height="40" as="geometry" />
        </mxCell>
        <mxCell id="z-kclkcZKXiEOrLD0j76-22" value="" style="endArrow=classic;html=1;rounded=0;exitX=-0.25;exitY=0.444;exitDx=0;exitDy=0;exitPerimeter=0;" edge="1" parent="WIyWlLk6GJQsqaUBKTNV-1">
          <mxGeometry width="50" height="50" relative="1" as="geometry">
            <mxPoint x="413.99999999999994" y="720" as="sourcePoint" />
            <mxPoint x="414.16" y="790" as="targetPoint" />
            <Array as="points">
              <mxPoint x="414.16" y="790" />
            </Array>
          </mxGeometry>
        </mxCell>
        <mxCell id="z-kclkcZKXiEOrLD0j76-23" value="Конец" style="ellipse;whiteSpace=wrap;html=1;" vertex="1" parent="WIyWlLk6GJQsqaUBKTNV-1">
          <mxGeometry x="354" y="790" width="120" height="80" as="geometry" />
        </mxCell>
      </root>
    </mxGraphModel>
  </diagram>
</mxfile>
